<?xml version="1.0" encoding="UTF-8"?>
<svg width="42px" height="17px" viewBox="0 0 42 17" version="1.1" xmlns="http://www.w3.org/2000/svg" xmlns:xlink="http://www.w3.org/1999/xlink">
    <!-- Generator: Sketch 52.4 (67378) - http://www.bohemiancoding.com/sketch -->
    <title>VSBL Logo</title>
    <desc>Created with Sketch.</desc>
    <g id="Symbols" stroke="none" stroke-width="1" fill="none" fill-rule="evenodd" opacity="0.4">
        <g id="Footer" transform="translate(-1478.000000, -41.000000)" fill="#FFFFFF" fill-rule="nonzero">
            <g id="Group-4" transform="translate(1366.000000, 38.000000)">
                <g id="VSBL-Logo" transform="translate(112.000000, 3.000000)">
                    <path d="M20.755443,10.9325203 C21.0389873,11.2504065 21.2516456,11.595935 21.3650633,11.9829268 C21.478481,12.3699187 21.5351899,12.8121951 21.5351899,13.3097561 C21.5351899,14.498374 21.081519,15.396748 20.16,16.004878 C19.238481,16.6130081 17.9483544,16.9170732 16.275443,16.9170732 C15.1837975,16.9170732 14.2622785,16.8203252 13.5392405,16.6406504 C12.8020253,16.4609756 12.3058228,16.3089431 12.0222785,16.1845528 L12.6035443,13.4203252 C13.1989873,13.6552846 13.8086076,13.8349593 14.4324051,13.9593496 C15.0562025,14.0837398 15.68,14.1528455 16.2896203,14.1528455 C16.9275949,14.1528455 17.3812658,14.097561 17.6506329,13.9731707 C17.92,13.8626016 18.0475949,13.6138211 18.0475949,13.2682927 C18.0475949,12.9918699 17.8774684,12.7569106 17.5372152,12.5495935 C17.196962,12.3422764 16.6724051,12.1073171 15.9635443,11.8447154 C15.4248101,11.6373984 14.9144304,11.4300813 14.4749367,11.2227642 C14.035443,11.0154472 13.6526582,10.7666667 13.3407595,10.4626016 C13.0288608,10.1585366 12.7878481,9.81300813 12.6177215,9.39837398 C12.4475949,8.98373984 12.3625316,8.48617886 12.3625316,7.90569106 C12.3625316,6.77235772 12.7878481,5.87398374 13.6526582,5.22439024 C14.5174684,4.57479675 15.6941772,4.24308943 17.196962,4.24308943 C17.9483544,4.24308943 18.6572152,4.31219512 19.3518987,4.43658537 C20.0465823,4.57479675 20.5853165,4.71300813 20.9964557,4.86504065 L20.3868354,7.51869919 C19.9756962,7.3804878 19.5362025,7.25609756 19.0541772,7.14552846 C18.5863291,7.03495935 18.0475949,6.9796748 17.4521519,6.9796748 C16.3605063,6.9796748 15.8075949,7.28373984 15.8075949,7.87804878 C15.8075949,8.00243902 15.8359494,8.12682927 15.878481,8.23739837 C15.9210127,8.33414634 16.0202532,8.44471545 16.1620253,8.54146341 C16.3037975,8.63821138 16.5022785,8.74878049 16.7432911,8.85934959 C16.9843038,8.98373984 17.2820253,9.10813008 17.6648101,9.24634146 C18.4303797,9.52276423 19.0683544,9.79918699 19.564557,10.0617886 C20.0749367,10.3243902 20.4718987,10.6146341 20.755443,10.9325203 Z M7.84,5.61138211 L11.6111392,4.96178862 C10.9164557,7.21463415 10.1792405,9.30162602 9.39949367,11.2227642 C8.57721519,13.2682927 7.75493671,15.0650407 6.96101266,16.5853659 L4.05468354,16.5853659 C3.26075949,15.0512195 2.43848101,13.2682927 1.61620253,11.2227642 C1.07746835,9.86829268 0.552911392,8.44471545 0.0425316456,6.93821138 L3.50177215,6.34390244 C3.51594937,6.38536585 3.53012658,6.42682927 3.5443038,6.46829268 C3.75696203,7.15934959 3.98379747,7.86422764 4.21063291,8.56910569 C4.43746835,9.27398374 4.6643038,9.96504065 4.89113924,10.6422764 C5.11797468,11.3056911 5.33063291,11.9138211 5.55746835,12.4666667 C5.77012658,11.9276423 5.98278481,11.3195122 6.22379747,10.6422764 C6.46481013,9.96504065 6.67746835,9.27398374 6.91848101,8.56910569 C7.15949367,7.86422764 7.3721519,7.15934959 7.58481013,6.46829268 C7.66987342,6.17804878 7.75493671,5.88780488 7.84,5.61138211 Z M33.3873418,6.01219512 C33.8410127,6.56504065 34.1812658,7.21463415 34.4222785,8.00243902 C34.6632911,8.76260163 34.7767089,9.63333333 34.7767089,10.5731707 C34.7767089,11.5406504 34.6207595,12.4113821 34.3372152,13.1853659 C34.0394937,13.9593496 33.6283544,14.6227642 33.075443,15.1756098 C32.5367089,15.7284553 31.8562025,16.1430894 31.0622785,16.4471545 C30.2683544,16.7373984 29.3610127,16.8894309 28.3402532,16.8894309 C27.9149367,16.8894309 27.475443,16.8756098 27.0075949,16.8341463 C26.5397468,16.7926829 26.0860759,16.7373984 25.6465823,16.6821138 C25.2070886,16.6130081 24.7817722,16.5439024 24.3706329,16.4609756 C23.9594937,16.3780488 23.6050633,16.295122 23.2931646,16.198374 L23.2931646,2.97154472 L26.7949367,2.37723577 L26.7949367,4.82357724 C27.1777215,4.65772358 27.5888608,4.53333333 28.0141772,4.43658537 C28.4394937,4.3398374 28.8931646,4.29837398 29.3751899,4.29837398 C30.2541772,4.29837398 31.0339241,4.43658537 31.7002532,4.74065041 C32.3665823,5.04471545 32.9336709,5.45934959 33.3873418,6.01219512 Z M30.4810127,13.0195122 C30.963038,12.3699187 31.2040506,11.5268293 31.2182278,10.4764228 C31.2182278,8.27886179 30.3817722,7.18699187 28.723038,7.18699187 C28.3686076,7.18699187 28.0141772,7.22845528 27.6597468,7.32520325 C27.3194937,7.42195122 27.0217722,7.53252033 26.8091139,7.67073171 L26.8091139,13.8764228 C26.9792405,13.904065 27.1918987,13.9317073 27.4612658,13.9593496 C27.7164557,13.9731707 28.0141772,13.9869919 28.3260759,13.9869919 C29.2759494,13.9869919 29.9989873,13.6552846 30.4810127,13.0195122 Z M40.32,13.3788618 C40.4475949,13.5447154 40.6460759,13.6829268 40.9012658,13.7520325 C41.1422785,13.8626016 41.4825316,13.9317073 41.9078481,13.9593496 L41.4116456,16.7788618 C40.3908861,16.7650407 39.5686076,16.6544715 38.9306329,16.4609756 C38.2926582,16.2674797 37.7964557,15.9910569 37.4278481,15.6317073 C37.0592405,15.2723577 36.8040506,14.8439024 36.6764557,14.3325203 C36.5488608,13.8211382 36.4779747,13.2406504 36.4779747,12.604878 L36.4779747,0.677235772 L39.9797468,0.0829268293 L39.9797468,11.9276423 C39.9797468,12.2317073 40.0081013,12.5081301 40.0506329,12.7569106 C40.0931646,13.0056911 40.1924051,13.2130081 40.32,13.3788618 Z" id="Combined-Shape"></path>
                </g>
            </g>
        </g>
    </g>
</svg>